<?xml version="1.0" standalone="no"?>
<!DOCTYPE svg PUBLIC "-//W3C//DTD SVG 20010904//EN"
 "http://www.w3.org/TR/2001/REC-SVG-20010904/DTD/svg10.dtd">
<svg version="1.0" xmlns="http://www.w3.org/2000/svg"
 width="980.000000pt" height="952.000000pt" viewBox="0 0 980.000000 952.000000"
 preserveAspectRatio="xMidYMid meet">
<metadata>
Created by potrace 1.16, written by Peter Selinger 2001-2019
</metadata>
<g transform="translate(0.000000,952.000000) scale(0.100000,-0.100000)"
fill="#000000" stroke="none">
<path d="M5247 7152 l-347 -347 0 -358 0 -357 345 0 c190 0 345 -3 345 -8 0
-14 -676 -683 -683 -676 -4 4 -7 157 -7 341 0 183 -3 333 -7 333 -5 0 -161
-153 -347 -340 -187 -186 -343 -337 -348 -334 -4 3 -8 156 -8 340 0 184 -3
334 -8 334 -4 0 -164 -157 -355 -348 l-347 -348 0 -355 0 -356 350 -348 c192
-192 355 -352 362 -357 7 -4 168 -8 358 -8 l344 0 353 353 353 352 358 5 357
5 3 348 c1 191 -1 347 -5 347 -5 0 -161 -153 -348 -340 -187 -187 -343 -340
-347 -340 -5 0 -8 632 -8 1405 0 773 -3 1405 -8 1405 -4 0 -163 -156 -355
-348z m-349 -2121 c2 -269 -1 -346 -10 -353 -15 -9 -658 -11 -682 -2 -14 5
-16 46 -16 348 0 189 3 346 7 349 4 4 162 6 352 5 l346 -3 3 -344z"/>
<path d="M3902 2938 c-5 -7 -22 -40 -37 -73 -15 -33 -61 -130 -102 -214 -40
-85 -71 -161 -69 -168 6 -15 34 -17 56 -3 8 5 24 28 35 52 l20 43 90 5 c100 6
113 0 136 -60 15 -40 25 -50 56 -50 44 0 45 -2 -96 310 -29 63 -58 128 -65
143 -10 22 -15 25 -24 15z m37 -209 c31 -76 30 -79 -34 -79 -41 0 -55 4 -55
14 0 24 44 116 56 116 6 0 21 -23 33 -51z"/>
<path d="M7871 2908 c-10 -24 -44 -97 -76 -163 -117 -245 -126 -265 -110 -272
34 -12 63 7 86 56 26 59 42 65 147 55 l75 -7 21 -49 c21 -50 49 -68 79 -51 15
8 -19 93 -128 328 -15 33 -36 79 -46 103 -10 23 -21 42 -24 42 -3 0 -14 -19
-24 -42z m62 -196 c9 -23 17 -47 17 -52 0 -12 -107 -13 -114 -2 -3 5 8 37 25
72 27 58 31 62 43 44 7 -10 20 -38 29 -62z"/>
<path d="M2296 2928 c-53 -14 -128 -90 -144 -144 -29 -99 -10 -186 56 -254 38
-38 57 -50 100 -59 95 -20 189 14 236 86 25 37 50 129 40 145 -3 5 -45 8 -95
8 l-89 0 0 -30 c0 -29 1 -30 50 -30 46 0 50 -2 50 -24 0 -32 -59 -83 -107 -92
-53 -10 -110 13 -147 59 -28 35 -31 46 -31 106 0 59 4 72 29 105 37 49 86 69
152 64 38 -3 61 -12 84 -31 36 -31 40 -32 65 -13 16 12 17 18 8 39 -25 55
-165 91 -257 65z"/>
<path d="M7121 2926 c-92 -33 -154 -126 -153 -229 2 -113 69 -197 178 -223
190 -44 337 117 283 310 -16 56 -92 129 -151 144 -58 15 -113 14 -157 -2z
m179 -85 c44 -32 70 -80 70 -130 0 -109 -82 -188 -184 -177 -55 6 -108 41
-131 86 -34 66 -8 186 48 223 58 38 143 37 197 -2z"/>
<path d="M1132 2704 l3 -229 94 3 c107 4 149 20 198 76 41 46 56 95 51 171 -5
75 -37 131 -99 172 -35 23 -52 27 -145 31 l-104 5 2 -229z m191 141 c67 -28
103 -120 78 -198 -23 -69 -118 -122 -181 -102 -19 6 -20 14 -20 161 l0 154 44
0 c24 0 59 -7 79 -15z"/>
<path d="M1782 2703 l3 -228 25 0 25 0 3 228 2 227 -30 0 -30 0 2 -227z"/>
<path d="M2882 2703 l3 -228 30 0 30 0 3 228 2 227 -35 0 -35 0 2 -227z"/>
<path d="M3216 2914 c-11 -30 12 -53 57 -56 l42 -3 3 -187 2 -188 25 -6 c13
-3 29 -3 34 1 7 4 11 73 11 195 l0 189 48 3 c45 3 47 4 50 36 l3 32 -134 0
c-113 0 -136 -3 -141 -16z"/>
<path d="M4392 2703 l3 -228 95 0 95 0 3 32 3 32 -63 3 -63 3 -3 193 -2 192
-35 0 -35 0 2 -227z"/>
<path d="M5230 2762 c0 -154 2 -171 23 -212 49 -97 198 -113 273 -28 39 44 45
76 42 243 l-3 160 -31 3 -32 3 -4 -170 c-3 -162 -5 -171 -27 -195 -30 -31 -74
-41 -112 -26 -51 22 -59 51 -59 230 l0 160 -35 0 -35 0 0 -168z"/>
<path d="M5887 2923 c-4 -3 -7 -104 -7 -224 l0 -219 26 -6 c14 -4 29 -3 34 2
5 5 10 47 12 94 l3 85 46 6 c25 4 60 14 77 23 88 45 79 193 -13 232 -35 14
-166 20 -178 7z m165 -80 c10 -9 18 -29 18 -45 0 -41 -32 -68 -80 -68 l-40 0
0 58 c0 32 3 62 7 65 13 13 77 7 95 -10z"/>
<path d="M6419 2918 c-5 -65 4 -435 11 -442 5 -5 20 -6 34 -2 25 6 26 8 26 91
0 47 4 85 8 85 5 0 37 -40 71 -90 52 -76 66 -90 89 -90 53 0 51 12 -15 104
-35 48 -63 89 -61 90 50 29 78 61 86 99 14 70 -14 127 -75 153 -42 18 -173 19
-174 2z m163 -75 c24 -22 23 -75 -1 -97 -11 -10 -35 -19 -53 -19 l-33 -2 -3
68 -3 67 37 0 c21 0 46 -7 56 -17z"/>
<path d="M8382 2703 l3 -228 25 0 c25 0 25 2 28 88 2 62 6 87 16 87 7 0 38
-38 70 -85 57 -84 85 -105 121 -91 23 8 19 17 -40 96 -30 40 -55 79 -55 87 0
7 11 20 26 29 56 37 72 130 33 186 -30 41 -75 58 -159 58 l-70 0 2 -227z m160
140 c23 -21 24 -75 1 -95 -24 -21 -59 -31 -83 -23 -17 5 -20 15 -20 64 0 32 3
61 7 64 13 13 77 7 95 -10z"/>
</g>
</svg>
